# AST/ASF file generated using VICON BodyLanguage
# -----------------------------------------------
:version 1.10
:name VICON
:units
  mass 1.0
  length 0.45
  angle deg
:documentation
   .ast/.asf automatically generated from VICON data using
   VICON BodyBuilder and BodyLanguage model FoxedUp or BRILLIANT.MOD
:root
   order TX TY TZ RX RY RZ
   axis XYZ
   position 0 0 0  
   orientation 0 0 0 
:bonedata
  begin
     id 1 
     name lhipjoint
     direction 0.611823 -0.767273 0.19226 
     length 2.47422 
     axis 0 0 0  XYZ
  end
  begin
     id 2 
     name lfemur
     direction 0.34202 -0.939693 0  
     length 7.40835  
     axis 0 0 20  XYZ
    dof rx ry rz
    limits (-160.0 20.0)
           (-70.0 70.0)
           (-60.0 70.0)
  end
  begin
     id 3 
     name ltibia
     direction 0.34202 -0.939693 0   
     length 8.03679   
     axis 0 0 20   XYZ
    dof rx
    limits (-10.0 170.0)
  end
  begin
     id 4 
     name lfoot
     direction 0.0883598 -0.242766 0.966052   
     length 2.06694   
     axis -90 7.62852e-016 20   XYZ
    dof rx rz
    limits (-45.0 90.0)
           (-70.0 20.0)
  end
  begin
     id 5 
     name ltoes
     direction 1.53617e-011 -4.21699e-011 1   
     length 1.03711   
     axis -90 7.62852e-016 20   XYZ
    dof rx
    limits (-90.0 20.0)
  end
  begin
     id 6 
     name rhipjoint
     direction -0.590066 -0.783143 0.196236   
     length 2.42408  
     axis 0 0 0  XYZ 
  end
  begin
     id 7 
     name rfemur
     direction -0.34202 -0.939693 0   
     length 7.88987   
     axis 0 0 -20   XYZ
    dof rx ry rz
    limits (-160.0 20.0)
           (-70.0 70.0)
           (-70.0 60.0)
  end
  begin
     id 8 
     name rtibia
     direction -0.34202 -0.939693 0   
     length 7.87584   
     axis 0 0 -20   XYZ
    dof rx
    limits (-10.0 170.0)
 end
 begin
     id 9 
     name rfoot
     direction -0.130476 -0.358481 0.924374   
     length 2.21745  
     axis -90 -7.62852e-016 -20   XYZ
    dof rx rz
    limits (-45.0 90.0)
           (-20.0 70.0)
  end
  begin
     id 10 
     name rtoes
     direction 8.20695e-005 8.89091e-005 1   
     length 1.09536   
     axis -90 -7.62852e-016 -20   XYZ
    dof rx
    limits (-90.0 20.0)
  end
  begin
     id 11 
     name lowerback
     direction 0.00981224 0.999875 -0.0124197   
     length 1.94808   
     axis 0 0 0   XYZ
    dof rx ry rz
    limits (-20.0 45.0)
           (-30.0 30.0)
           (-30.0 30.0)
  end
  begin
     id 12 
     name upperback
     direction 0.038911 0.999194 0.00981686   
     length 1.94415   
     axis 0 0 0   XYZ
    dof rx ry rz
    limits (-20.0 45.0)
           (-30.0 30.0)
           (-30.0 30.0)
  end
  begin
     id 13 
     name thorax
     direction 0.0330692 0.999334 0.0154389   
     length 1.94117   
     axis 0 0 0   XYZ
    dof rx ry rz
    limits (-20.0 45.0)
           (-30.0 30.0)
           (-30.0 30.0)
  end
  begin
     id 14 
     name lowerneck
     direction -0.0374305 0.99415 0.10132   
     length 1.87291   
     axis 0 0 0   XYZ
    dof rx ry rz
    limits (-20.0 45.0)
           (-30.0 30.0)
           (-30.0 30.0)
  end
  begin
     id 15 
     name upperneck
     direction 0.0120692 0.985979 -0.166431   
     length 1.89248   
     axis 0 0 0   XYZ
    dof rx ry rz
    limits (-20.0 45.0)
           (-30.0 30.0)
           (-30.0 30.0)
  end
  begin
     id 16
     name head
     direction 0.00629908 0.997708 -0.06737  
     length 1.90559  
     axis 0 0 0   XYZ
    dof rx ry rz
    limits (-20.0 45.0)
           (-30.0 30.0)
           (-30.0 30.0)
  end
  begin
     id 17 
     name lclavicle
     direction 0.961536 0.27308 -0.0295863  
     length 3.52757  
     axis 0 0 0   XYZ
    dof ry rz
    limits (-20.0 10.0)
           (0.0 20.0)
  end
  begin
     id 18 
     name lhumerus
     direction 1 -4.48969e-011 2.61153e-029   
     length 5.14845   
     axis 180 -30 -90   XYZ
    dof rx ry rz
    limits (-60.0 90.0)
           (-90.0 90.0)
           (-90.0 90.0)
  end
  begin
     id 19
     name lradius
     direction 1 -4.4896e-011 -3.37549e-027   
     length 3.43674   
     axis 180 -30 -90   XYZ
    dof rx
    limits (-10.0 170.0)
  end
  begin
     id 20
     name lwrist
     direction 1 -4.48969e-011 2.56952e-028   
     length 1.71837   
     axis -5.12785e-016 90 90   XYZ
    dof ry
    limits (-180.0 0.0)
 end
  begin
     id 21 
     name lhand
     direction 1 -4.49094e-011 5.13905e-028   
     length 0.588709   
     axis -3.27915e-016 90 90   XYZ
    dof rx rz
    limits (-90.0 90.0)
           (-45.0 45.0)
  end
  begin
     id 22 
     name lfingers
     direction 1 -4.48821e-011 1.02781e-027   
     length 0.474633   
     axis -6.5583e-016 90 90   XYZ
    dof rx
    limits (0.0 90.0)
  end
  begin
     id 23
     name lthumb
     direction 0.707107 -6.34922e-011 0.707107   
     length 0.68148   
     axis -90 45 2.85299e-015   XYZ
    dof rx rz
    limits (-45.0 45.0)
           (-45.0 45.0)
  end
  begin
     id 24 
     name rclavicle
     direction -0.940964 0.333844 -0.0559866   
     length 3.55948  
     axis 0 0 0   XYZ 
    dof ry rz
    limits (-10.0 20.0)
           (-20.0 0.0)
  end
  begin
     id 25 
     name rhumerus
     direction -1 -4.48973e-011 3.15259e-027  
     length 5.42185   
     axis 180 30 90   XYZ
    dof rx ry rz
    limits (-90.0 60.0)
           (-90.0 90.0)
           (-90.0 90.0)
  end
  begin
     id 26 
     name rradius
     direction -1 -4.48954e-011 -2.56271e-027   
     length 3.51317   
     axis 180 30 90   XYZ
    dof rx
    limits (-10.0 170.0)
  end
  begin
     id 27 
     name rwrist
     direction -1 -4.48943e-011 2.56952e-028   
     length 1.75658   
     axis -5.12785e-016 -90 -90   XYZ
    dof ry
    limits (-180.0 0.0)
  end
  begin
     id 28
     name rhand
     direction -1 -4.4912e-011 5.13905e-028   
     length 0.663187   
     axis -3.27915e-016 -90 -90   XYZ
    dof rx rz
    limits (-90.0 90.0)
           (-45.0 45.0)
  end
  begin
     id 29
     name rfingers
     direction -1 -4.48914e-011 1.02781e-027   
     length 0.534679   
     axis -6.5583e-016 -90 -90   XYZ
    dof rx
    limits (0.0 90.0)
  end
  begin
     id 30
     name rthumb
     direction -0.707107 -6.35033e-011 0.707107   
     length 0.767695   
     axis -90 -45 -2.85299e-015   XYZ
    dof rx rz
    limits (-45.0 45.0)
           (-45.0 45.0)
  end
:hierarchy
  begin
    root lhipjoint rhipjoint lowerback
    lhipjoint lfemur
    lfemur ltibia
    ltibia lfoot
    lfoot ltoes
    rhipjoint rfemur
    rfemur rtibia
    rtibia rfoot
    rfoot rtoes
    lowerback upperback
    upperback thorax
    thorax lowerneck lclavicle rclavicle
    lowerneck upperneck
    upperneck head
    lclavicle lhumerus
    lhumerus lradius
    lradius lwrist
    lwrist lhand lthumb
    lhand lfingers
    rclavicle rhumerus
    rhumerus rradius
    rradius rwrist
    rwrist rhand rthumb
    rhand rfingers
  end

#!OML:ASF F:\VICON\USERDATA\INSTALL\Justin_a\Justin_a.ASF
:FULLY-SPECIFIED
:DEGREES
2810
root 14.3936 18.1311 8.7274 5.73011 26.6612 0.413559
lowerback 2.76218 6.60505 3.59016
upperback 2.80805 8.85961 0.624789
thorax 1.79926 4.4919 -1.40387
lowerneck -3.3201 16.899 0.488276
upperneck 35.9572 28.7085 -6.14772
head 14.106 12.4246 1.34122
rclavicle -1.39149e-015 4.77083e-015
rhumerus -27.3531 -2.71293 -75.6144
rradius 43.2009
rwrist -13.5548
rhand -28.2169 12.4148
rfingers 7.12502
rthumb -1.59536 -17.559
lclavicle -1.39149e-015 4.77083e-015
lhumerus -36.8285 16.9542 80.847
lradius 34.3835
lwrist 4.24723
lhand -16.3064 23.5368
lfingers 7.12502
lthumb 9.90456 53.2838
rfemur -32.2879 -3.81289 25.108
rtibia 34.0249
rfoot -9.11172 5.0068
rtoes 9.96087
lfemur -19.6405 -16.9364 -11.0525
ltibia 58.2729
lfoot 14.6859 -31.2646
ltoes 11.8701
2811
root 14.4119 18.1154 8.65942 5.66564 26.3279 0.372978
lowerback 2.86799 6.67669 3.72339
upperback 2.76764 8.96304 0.531789
thorax 1.74013 4.54577 -1.58362
lowerneck -3.19 16.9659 0.605766
upperneck 35.9511 28.7603 -6.09107
head 14.0865 12.4737 1.33916
rclavicle 5.48646e-014 -2.54444e-014
rhumerus -27.6295 -2.9121 -75.5705
rradius 43.3329
rwrist -13.5476
rhand -28.1204 12.1502
rfingers 7.12502
rthumb -1.50222 -17.8243
lclavicle 5.48646e-014 -2.54444e-014
lhumerus -36.8828 16.8037 80.7753
lradius 34.4241
lwrist 4.02038
lhand -16.198 23.473
lfingers 7.12502
lthumb 10.0091 53.215
rfemur -32.4461 -3.7474 25.0318
rtibia 34.0154
rfoot -8.96844 5.24282
rtoes 10.4401
lfemur -19.2051 -16.711 -11.1628
ltibia 57.6142
lfoot 15.0742 -31.4976
ltoes 13.2843
2812
root 14.4292 18.1037 8.59067 5.66239 25.9576 0.30546
lowerback 2.78567 6.70018 3.79506
upperback 2.79346 8.99159 0.509803
thorax 1.829 4.56315 -1.63019
lowerneck -3.167 17.0417 0.53759
upperneck 35.7964 28.857 -6.16203
head 14.0196 12.5101 1.32398
rclavicle -1.32589e-013 -1.59028e-015
rhumerus -27.7483 -3.04018 -75.4797
rradius 43.4339
rwrist -13.479
rhand -28.0227 12.0475
rfingers 7.12502
rthumb -1.40785 -17.9276
lclavicle -1.32589e-013 -1.59028e-015
lhumerus -36.8031 17.073 80.6768
lradius 34.3622
lwrist 3.77818
lhand -16.0666 23.2544
lfingers 7.12502
lthumb 10.1359 52.9902
rfemur -32.6735 -3.56507 24.9591
rtibia 33.9799
rfoot -8.74038 5.44751
rtoes 11.5038
lfemur -18.8522 -16.5004 -11.2323
ltibia 56.9519
lfoot 15.783 -31.4231
ltoes 15.0754
2813
root 14.4486 18.0915 8.51833 5.65539 25.7194 0.436281
lowerback 2.7407 6.6468 3.66896
upperback 2.87054 8.91554 0.489403
thorax 1.9129 4.52542 -1.57274
lowerneck -3.02731 17.1515 0.61892
upperneck 35.6032 29.0418 -6.40428
head 13.9808 12.5906 1.23661
rclavicle -8.64713e-014 1.66979e-014
rhumerus -27.878 -2.99605 -75.3811
rradius 43.5632
rwrist -13.5879
rhand -27.8073 12.1722
rfingers 7.12502
rthumb -1.1998 -17.8042
lclavicle -8.64713e-014 1.66979e-014
lhumerus -36.7128 17.3681 80.5666
lradius 34.3091
lwrist 3.76947
lhand -15.9884 23.2883
lfingers 7.12502
lthumb 10.2113 53.0204
rfemur -32.8056 -3.67577 24.7237
rtibia 33.9193
rfoot -8.58923 5.71299
rtoes 12.6759
lfemur -18.3761 -16.37 -11.5736
ltibia 56.2758
lfoot 16.2944 -31.5222
ltoes 16.2055
2814
root 14.4687 18.0764 8.44123 5.51067 25.5082 0.33978
lowerback 2.82666 6.64528 3.87249
upperback 2.90434 8.92008 0.45429
thorax 1.93775 4.53312 -1.72364
lowerneck -2.80043 17.2301 0.864207
upperneck 35.4361 29.1334 -6.57111
head 13.9408 12.6612 1.13527
rclavicle -5.32743e-014 1.19271e-014
rhumerus -28.1102 -2.98974 -75.2982
rradius 43.7082
rwrist -13.7708
rhand -27.8141 12.2503
rfingers 7.12502
rthumb -1.20638 -17.726
lclavicle -5.32743e-014 1.19271e-014
lhumerus -36.7072 16.9614 80.643
lradius 34.597
lwrist 4.04063
lhand -15.9588 23.679
lfingers 7.12502
lthumb 10.2399 53.4098
rfemur -32.8799 -3.81811 24.7186
rtibia 33.8446
rfoot -8.43247 6.00861
rtoes 12.9084
lfemur -17.8948 -16.2216 -11.706
ltibia 55.5982
lfoot 16.8907 -31.6583
ltoes 17.6626
2815
root 14.4869 18.0591 8.36181 5.24192 25.2385 -0.00471242
lowerback 3.03238 6.67469 4.3463
upperback 2.91465 8.97641 0.459203
thorax 1.91126 4.57037 -1.99386
lowerneck -2.93575 17.3012 0.756613
upperneck 35.4907 29.219 -6.44326
head 13.9524 12.687 1.21871
rclavicle -1.30999e-013 -1.03368e-014
rhumerus -28.328 -2.92637 -75.2783
rradius 43.7658
rwrist -13.8645
rhand -28.1604 12.2442
rfingers 7.12502
rthumb -1.54085 -17.73
lclavicle -1.30999e-013 -1.03368e-014
lhumerus -36.6778 16.4055 80.8837
lradius 34.9657
lwrist 4.6328
lhand -16.434 24.1599
lfingers 7.12502
lthumb 9.78147 53.9127
rfemur -32.9551 -3.79285 24.9476
rtibia 33.7998
rfoot -8.30434 6.12671
rtoes 12.8875
lfemur -17.4027 -15.9986 -11.5968
ltibia 54.8998
lfoot 17.4326 -31.7418
ltoes 20.0373
2816
root 14.5011 18.0394 8.28419 5.12696 24.8534 -0.173949
lowerback 3.06369 6.73222 4.46481
upperback 2.9198 9.05613 0.492737
thorax 1.91807 4.61219 -2.02534
lowerneck -3.08828 17.3909 0.565461
upperneck 35.6343 29.3402 -6.24235
head 13.9816 12.7218 1.34628
rclavicle 2.52457e-014 -4.92986e-014
rhumerus -28.574 -2.85909 -75.1772
rradius 43.8331
rwrist -13.9936
rhand -28.0583 12.3308
rfingers 7.12502
rthumb -1.44224 -17.6441
lclavicle 2.52457e-014 -4.92986e-014
lhumerus -36.6272 16.1749 81.0814
lradius 35.1415
lwrist 4.93853
lhand -16.674 24.1317
lfingers 7.12502
lthumb 9.5499 53.8953
rfemur -33.141 -3.55133 24.9883
rtibia 33.7538
rfoot -8.10655 6.16736
rtoes 13.0196
lfemur -16.9702 -15.6439 -11.6542
ltibia 54.1978
lfoot 17.5155 -31.9722
ltoes 22.4251
2817
root 14.5175 18.0231 8.20634 5.15761 24.5429 0.00309644
lowerback 2.94525 6.73439 4.23118
upperback 2.98833 9.04783 0.483507
thorax 2.01875 4.60636 -1.89037
lowerneck -3.07787 17.4798 0.456597
upperneck 35.6225 29.4576 -6.20002
head 13.9544 12.767 1.38469
rclavicle 9.22361e-014 -1.98785e-014
rhumerus -28.729 -2.79625 -75.0648
rradius 43.8506
rwrist -14.1052
rhand -28.0949 12.4039
rfingers 7.12502
rthumb -1.4776 -17.5707
lclavicle 9.22361e-014 -1.98785e-014
lhumerus -36.6444 16.3537 81.1137
lradius 35.347
lwrist 4.91322
lhand -16.6678 23.7968
lfingers 7.12502
lthumb 9.55584 53.5601
rfemur -33.3745 -3.5248 24.7012
rtibia 33.7386
rfoot -7.82978 6.38002
rtoes 12.7434
lfemur -16.5447 -15.3704 -12.1256
ltibia 53.4848
lfoot 16.9683 -32.3281
ltoes 21.8218
2818
root 14.5368 18.0037 8.12269 5.12563 24.4034 0.0449148
lowerback 2.87846 6.68217 4.19078
upperback 3.01087 8.97398 0.489147
thorax 2.06697 4.56969 -1.85372
lowerneck -2.80545 17.5264 0.587257
upperneck 35.3945 29.5252 -6.4418
head 13.8749 12.8154 1.25732
rclavicle 1.17283e-014 -2.62396e-014
rhumerus -28.9774 -2.75446 -74.972
rradius 43.953
rwrist -14.1986
rhand -27.9961 12.2809
rfingers 7.12502
rthumb -1.38214 -17.6944
lclavicle 1.17283e-014 -2.62396e-014
lhumerus -36.6599 16.4256 81.1366
lradius 35.4599
lwrist 4.91142
lhand -16.5562 23.8149
lfingers 7.12502
lthumb 9.6636 53.5732
rfemur -33.5827 -3.77445 24.6018
rtibia 33.729
rfoot -7.66024 6.6216
rtoes 11.884
lfemur -16.1547 -15.1934 -12.4648
ltibia 52.7903
lfoot 16.675 -32.3534
ltoes 21.5502
2819
root 14.5516 17.9769 8.03578 5.13872 24.1692 0.0556506
lowerback 2.8285 6.68617 4.19311
upperback 3.0045 8.97747 0.452025
thorax 2.09478 4.57224 -1.8861
lowerneck -2.6168 17.5784 0.726703
upperneck 35.2089 29.5895 -6.61601
head 13.8179 12.8618 1.16354
rclavicle 2.01369e-013 -1.27222e-014
rhumerus -29.2877 -2.75399 -74.9277
rradius 44.1162
rwrist -14.4104
rhand -28.0361 12.1017
rfingers 7.12502
rthumb -1.42077 -17.8733
lclavicle 2.01369e-013 -1.27222e-014
lhumerus -36.6303 16.1723 81.2334
lradius 35.6791
lwrist 5.09756
lhand -16.446 23.6664
lfingers 7.12502
lthumb 9.76991 53.4197
rfemur -33.8697 -3.77554 24.5433
rtibia 33.6878
rfoot -7.53876 6.6266
rtoes 9.95706
lfemur -15.8667 -14.8431 -12.7579
ltibia 52.1144
lfoot 16.2941 -32.4197
ltoes 21.1624
2820
root 14.5676 17.9594 7.94656 5.06686 23.8979 0.0491654
lowerback 2.87004 6.69902 4.23351
upperback 3.02389 8.99709 0.42292
thorax 2.10425 4.58384 -1.94018
lowerneck -2.64411 17.6509 0.790072
upperneck 35.2204 29.6926 -6.61901
head 13.8467 12.9075 1.17618
rclavicle -7.0171e-014 1.27222e-014
rhumerus -29.6672 -2.7171 -74.8728
rradius 44.3766
rwrist -14.5211
rhand -28.0765 11.9311
rfingers 7.12502
rthumb -1.45978 -18.0437
lclavicle -7.0171e-014 1.27222e-014
lhumerus -36.5665 15.6812 81.4669
lradius 35.9902
lwrist 5.6218
lhand -16.7188 23.92
lfingers 7.12502
lthumb 9.50665 53.6855
rfemur -34.0324 -3.59229 24.3964
rtibia 33.5828
rfoot -7.22794 6.6702
rtoes 9.40187
lfemur -15.5046 -14.5492 -13.0871
ltibia 51.4537
lfoot 15.8234 -32.2737
ltoes 21.5145
2821
root 14.5818 17.95 7.85532 4.98732 23.6979 0.0792256
lowerback 2.84641 6.65682 4.18612
upperback 3.11938 8.93702 0.445975
thorax 2.2011 4.55576 -1.88196
lowerneck -2.59846 17.7414 0.714032
upperneck 35.0738 29.8155 -6.70087
head 13.7841 12.956 1.16034
rclavicle -2.96189e-014 -2.54444e-014
rhumerus -29.82 -2.69217 -74.7744
rradius 44.4229
rwrist -14.4098
rhand -28.0965 11.9212
rfingers 7.12502
rthumb -1.47907 -18.0535
lclavicle -2.96189e-014 -2.54444e-014
lhumerus -36.4188 15.6548 81.6239
lradius 36.2021
lwrist 5.80455
lhand -16.8184 23.9788
lfingers 7.12502
lthumb 9.41057 53.7487
rfemur -34.1879 -3.37278 24.1477
rtibia 33.4541
rfoot -6.79907 6.66337
rtoes 10.1531
lfemur -15.1516 -14.3172 -13.4469
ltibia 50.8294
lfoot 15.3594 -32.3038
ltoes 21.8496
2822
root 14.5932 17.9411 7.76145 4.93124 23.6112 0.015441
lowerback 2.78164 6.57343 4.17804
upperback 3.14705 8.82187 0.478297
thorax 2.25162 4.49882 -1.83628
lowerneck -2.51294 17.8471 0.774336
upperneck 35.0173 29.9697 -6.77577
head 13.7792 13.028 1.13989
rclavicle -9.34288e-014 1.27222e-014
rhumerus -30.1065 -2.69459 -74.7234
rradius 44.5372
rwrist -14.4883
rhand -27.9935 12.1005
rfingers 7.12502
rthumb -1.37968 -17.8747
lclavicle -9.34288e-014 1.27222e-014
lhumerus -36.3553 15.8766 81.6196
lradius 36.4284
lwrist 5.68841
lhand -16.6929 24.3212
lfingers 7.12502
lthumb 9.53161 54.0856
rfemur -34.4097 -3.09338 23.9312
rtibia 33.2961
rfoot -6.28856 6.60127
rtoes 12.2854
lfemur -14.913 -14.1367 -13.6735
ltibia 50.2724
lfoot 15.2655 -32.4679
ltoes 23.8127
2823
root 14.6072 17.9259 7.66095 4.93454 23.478 0.0645855
lowerback 2.78448 6.53998 4.16589
upperback 3.13226 8.77771 0.461269
thorax 2.2326 4.47619 -1.84923
lowerneck -2.48785 17.8948 0.759912
upperneck 35.0588 30.0446 -6.75959
head 13.7932 13.0587 1.1567
rclavicle -4.57205e-015 1.59028e-014
rhumerus -30.4327 -2.85511 -74.6043
rradius 44.5671
rwrist -14.4996
rhand -27.926 12.1225
rfingers 7.12502
rthumb -1.31444 -17.8532
lclavicle -4.57205e-015 1.59028e-014
lhumerus -36.2673 15.8497 81.6858
lradius 36.5677
lwrist 5.65791
lhand -16.6433 24.3834
lfingers 7.12502
lthumb 9.57951 54.1456
rfemur -34.6463 -2.96641 23.6546
rtibia 33.1122
rfoot -5.75659 6.62736
rtoes 12.9588
lfemur -14.6979 -13.9741 -14.0356
ltibia 49.8282
lfoot 14.4905 -32.4759
ltoes 24.7948
